<?xml version="1.0" encoding="UTF-8" standalone="no"?>
<svg
   height="24"
   viewBox="0 0 24 24"
   width="24"
   version="1.1"
   id="svg2"
   xml:space="preserve"
   xmlns="http://www.w3.org/2000/svg"
   xmlns:svg="http://www.w3.org/2000/svg"><defs
     id="defs2" /><path
     d="M0 0h24v24H0z"
     fill="none"
     opacity=".1"
     id="path1" /><path
     d="M20 12c0-2.54-1.19-4.81-3.04-6.27L16 0H8l-.95 5.73C5.19 7.19 4 9.45 4 12s1.19 4.81 3.05 6.27L8 24h8l.96-5.73C18.81 16.81 20 14.54 20 12zM6 12c0-3.31 2.69-6 6-6s6 2.69 6 6-2.69 6-6 6-6-2.69-6-6z"
     id="path2"
     style="fill:#ffffff" /><g
     id="g2"
     transform="matrix(0.5,0,0,0.5,6,6)"><path
       d="M 0,0 H 24 V 24 H 0 Z"
       fill="none"
       id="path1-5" /><path
       d="M 9,16.17 4.83,12 3.41,13.41 9,19 21,7 19.59,5.59 Z"
       id="path2-3"
       style="fill:#ffffff" /></g></svg>
